<svg xmlns="http://www.w3.org/2000/svg" viewBox="0 0 1200 760" role="img" aria-labelledby="title desc">
  <title id="title">Local professionnel moderne</title>
  <desc id="desc">Bureaux lumineux avec open space et salles de reunion.</desc>
  <defs>
    <linearGradient id="wall" x1="0" x2="1" y1="0" y2="1">
      <stop offset="0" stop-color="#eaf0f2"/>
      <stop offset="1" stop-color="#d8e4e8"/>
    </linearGradient>
    <linearGradient id="desk" x1="0" x2="1" y1="0" y2="0">
      <stop offset="0" stop-color="#35465a"/>
      <stop offset="1" stop-color="#60758a"/>
    </linearGradient>
  </defs>
  <rect width="1200" height="760" fill="url(#wall)"/>
  <rect x="76" y="76" width="440" height="330" rx="16" fill="#ffffff"/>
  <rect x="564" y="76" width="360" height="330" rx="16" fill="#ffffff"/>
  <rect x="136" y="130" width="320" height="216" rx="10" fill="#bad7e5"/>
  <rect x="624" y="130" width="260" height="216" rx="10" fill="#bad7e5"/>
  <rect y="462" width="1200" height="298" fill="#c7bba7"/>
  <rect x="176" y="464" width="760" height="122" rx="22" fill="url(#desk)"/>
  <rect x="214" y="424" width="160" height="74" rx="12" fill="#f5efe4"/>
  <rect x="426" y="424" width="160" height="74" rx="12" fill="#f5efe4"/>
  <rect x="638" y="424" width="160" height="74" rx="12" fill="#f5efe4"/>
  <rect x="256" y="584" width="74" height="108" rx="16" fill="#233243"/>
  <rect x="468" y="584" width="74" height="108" rx="16" fill="#233243"/>
  <rect x="680" y="584" width="74" height="108" rx="16" fill="#233243"/>
  <rect x="948" y="360" width="84" height="250" rx="24" fill="#176955"/>
  <circle cx="990" cy="318" r="84" fill="#68a876"/>
  <rect x="84" y="646" width="972" height="26" rx="13" fill="#8a7661" opacity=".32"/>
</svg>
