<svg xmlns="http://www.w3.org/2000/svg" viewBox="0 0 1200 760" role="img" aria-labelledby="title desc">
  <title id="title">Appartement lumineux</title>
  <desc id="desc">Salon contemporain avec baie vitree et vue urbaine.</desc>
  <defs>
    <linearGradient id="sky" x1="0" x2="1" y1="0" y2="1">
      <stop offset="0" stop-color="#dbeef5"/>
      <stop offset="1" stop-color="#f8f2df"/>
    </linearGradient>
    <linearGradient id="floor" x1="0" x2="1" y1="0" y2="0">
      <stop offset="0" stop-color="#b88254"/>
      <stop offset="1" stop-color="#e6c397"/>
    </linearGradient>
  </defs>
  <rect width="1200" height="760" fill="#f7f3ea"/>
  <rect x="70" y="70" width="1060" height="430" rx="18" fill="url(#sky)"/>
  <rect x="110" y="112" width="292" height="348" rx="10" fill="#ffffff" opacity=".9"/>
  <rect x="442" y="112" width="292" height="348" rx="10" fill="#ffffff" opacity=".9"/>
  <rect x="774" y="112" width="292" height="348" rx="10" fill="#ffffff" opacity=".9"/>
  <g opacity=".42">
    <rect x="154" y="170" width="76" height="112" rx="6" fill="#34667a"/>
    <rect x="256" y="170" width="76" height="112" rx="6" fill="#34667a"/>
    <rect x="486" y="170" width="76" height="112" rx="6" fill="#34667a"/>
    <rect x="588" y="170" width="76" height="112" rx="6" fill="#34667a"/>
    <rect x="818" y="170" width="76" height="112" rx="6" fill="#34667a"/>
    <rect x="920" y="170" width="76" height="112" rx="6" fill="#34667a"/>
  </g>
  <rect y="500" width="1200" height="260" fill="url(#floor)"/>
  <rect x="164" y="470" width="360" height="124" rx="24" fill="#27495c"/>
  <rect x="198" y="432" width="128" height="96" rx="18" fill="#f1d7a2"/>
  <rect x="382" y="432" width="128" height="96" rx="18" fill="#f1d7a2"/>
  <rect x="594" y="448" width="304" height="140" rx="18" fill="#fffaf0"/>
  <rect x="630" y="404" width="92" height="84" rx="14" fill="#244255"/>
  <rect x="864" y="394" width="74" height="190" rx="18" fill="#176955"/>
  <circle cx="901" cy="360" r="74" fill="#5aa276"/>
  <rect x="130" y="616" width="804" height="28" rx="14" fill="#8f674b" opacity=".35"/>
</svg>
