<svg xmlns="http://www.w3.org/2000/svg" viewBox="0 0 1200 760" role="img" aria-labelledby="title desc">
  <title id="title">Maison familiale avec jardin</title>
  <desc id="desc">Maison contemporaine avec terrasse, jardin et lumiere du soir.</desc>
  <defs>
    <linearGradient id="sky" x1="0" x2="0" y1="0" y2="1">
      <stop offset="0" stop-color="#cfe7ef"/>
      <stop offset="1" stop-color="#fff1d5"/>
    </linearGradient>
    <linearGradient id="grass" x1="0" x2="1" y1="0" y2="0">
      <stop offset="0" stop-color="#8fbf7c"/>
      <stop offset="1" stop-color="#4f8a62"/>
    </linearGradient>
  </defs>
  <rect width="1200" height="760" fill="url(#sky)"/>
  <circle cx="1000" cy="134" r="82" fill="#ffd27a" opacity=".9"/>
  <rect y="514" width="1200" height="246" fill="url(#grass)"/>
  <path d="M210 392 516 184l338 208v242H210Z" fill="#f6eee2"/>
  <path d="M170 404 516 158l378 246h-92L516 224 258 404Z" fill="#8b5134"/>
  <rect x="294" y="438" width="150" height="136" rx="10" fill="#2f6574"/>
  <rect x="584" y="432" width="190" height="202" rx="14" fill="#81523b"/>
  <rect x="596" y="446" width="68" height="74" rx="8" fill="#f5dca8"/>
  <rect x="696" y="446" width="58" height="74" rx="8" fill="#f5dca8"/>
  <rect x="120" y="610" width="960" height="24" rx="12" fill="#e4d2b7"/>
  <rect x="128" y="636" width="960" height="34" rx="17" fill="#d0b083"/>
  <g opacity=".92">
    <rect x="910" y="420" width="58" height="178" rx="20" fill="#6b5d34"/>
    <circle cx="938" cy="382" r="98" fill="#2f7d4b"/>
    <circle cx="1010" cy="434" r="76" fill="#4f9a58"/>
    <circle cx="862" cy="442" r="62" fill="#5aa56b"/>
  </g>
  <path d="M72 548c96-62 182-62 258 0 80 65 174 64 282 0 92-55 178-54 258 0 74 50 154 55 240 16v46H72Z" fill="#ffffff" opacity=".2"/>
</svg>
